 <svg style="border:2px solid #58466D;  box-shadow: rgba(84, 92, 164, 0.5) 0px 4px 24px;height:50px;width:50px;border-radius:50%" height="60" width="60" viewBox="0 0 60 60" overflow="visible" class="RootOrb-sc-140igz3-2 jwHNNw"><defs><filter id="RootOrb__ProgressRingColor" filterUnits="userSpaceOnUse"><feFlood result="shade" flood-color="#58466D" flood-opacity="0.25"></feFlood><feComposite result="newColor" in="shade" in2="SourceGraphic" operator="in"></feComposite><feBlend in="SourceGraphic" in2="newColor" mode="overlay"></feBlend></filter><filter id="RootOrb__InnerDropShadow" filterUnits="userSpaceOnUse"><feGaussianBlur in="SourceAlpha" stdDeviation="5"></feGaussianBlur><feComponentTransfer><feFuncA type="linear" slope="0.5"></feFuncA></feComponentTransfer><feBlend in="SourceGraphic" mode="normal"></feBlend></filter></defs><circle stroke="#58466D" fill="#58466D" stroke-width="10" stroke-dasharray="157.07963267948966 157.07963267948966" stroke-dashoffset="0" r="25" cx="50%" cy="50%" shape-rendering="geometricPrecision" transform="scale(0)" class="RootOrb__StyledCircle-sc-140igz3-1 gZjLhG"></circle><circle stroke="#58466D" fill="#58466D" stroke-width="10" stroke-dasharray="157.07963267948966 157.07963267948966" stroke-dashoffset="0" r="25" cx="50%" cy="50%" shape-rendering="geometricPrecision" transform="scale(0)" class="RootOrb__StyledCircle-sc-140igz3-1 cSHOld"></circle><circle stroke="none" fill="white" stroke-width="0" stroke-dasharray="0" stroke-dashoffset="0" r="20" cx="50%" cy="50%" shape-rendering="geometricPrecision" transform="scale(1.25) translate(-6 -6)" class="RootOrb__StyledCircle-sc-140igz3-1 huHyas"></circle><path d="M10.7143 5.25H10.0714V3.5625C10.0714 1.61719 8.22321 0 6 0C3.75 0 1.92857 1.61719 1.92857 3.5625V5.25H1.28571C0.5625 5.25 0 5.76562 0 6.375V10.875C0 11.5078 0.5625 12 1.28571 12H10.7143C11.4107 12 12 11.5078 12 10.875V6.375C12 5.76562 11.4107 5.25 10.7143 5.25ZM7.92857 5.25H4.07143V3.5625C4.07143 2.64844 4.92857 1.875 6 1.875C7.04464 1.875 7.92857 2.64844 7.92857 3.5625V5.25Z" fill="#58466D" transform="scale(1.2) translate(19 19)" class="RootOrb__Lock-sc-140igz3-0 ggfgqQ"></path></svg>
          