<svg id="Layer_1" data-name="Layer 1" xmlns="http://www.w3.org/2000/svg" viewBox="0 0 439.38 410.09"><defs><style>.cls-1{fill:#ec7f2d;}.cls-1,.cls-2,.cls-3,.cls-4,.cls-5,.cls-6,.cls-7,.cls-8{fill-rule:evenodd;}.cls-2{fill:#f29236;}.cls-3{fill:#faa342;}.cls-4{fill:#ffb34c;}.cls-5{fill:#ffc563;}.cls-6{fill:#5e1b0c;}.cls-7{fill:#87250e;}.cls-8{fill:#a6401d;}</style></defs><g id="_1" data-name="1"><path class="cls-1" d="M154.63,52.15c32.05-26.36,117.4-17.1,138.59-2.31,17.67,12.33,52,22.33,71.67,58.37,17.3,31.72,27.22,53.33,27.22,88.72,0,30.74,3,66.53-11.09,92.78-21.62,40.28-55.95,54.61-65.4,64.17-30.95,31.26-129.21,21.2-167.44,8.63-12.48-4.1-20.56-12-31.53-19.08-10.31-6.69-21.73-14.18-26.27-20.16-7.33-9.66-16.95-36.88-25.17-48.09-11.73-16-24.47-57.63-14.77-90.42,13.39-45.27,18.14-81.19,62.88-112.59C128.43,61.56,144.12,60.79,154.63,52.15Z"/><path class="cls-2" d="M85.48,283C57.9,255.47,59.25,175.37,71.35,154.42,81.44,137,87.89,104.2,120.13,82.86,148.5,64.09,168,53,201.31,50c28.95-2.62,62.39-8.44,88.31,2.41,39.79,16.65,56.25,47.33,66.06,55.31,32.11,26.09,31.11,118.25,22.57,154.84-2.78,11.94-9.48,20.12-15.24,30.92-5.42,10.15-11.48,21.4-16.72,26.12-8.46,7.64-33.26,18.89-43.11,27.49-14,12.25-52.15,27.63-83.86,21.41-43.77-8.59-78-9.94-111.43-48.84C96.6,306.54,94.52,292,85.48,283Z"/><path class="cls-3" d="M119,99.36c17.93-31.51,90.36-50.52,112.22-45,18.23,4.58,49.31,2.06,76.52,25.39,23.95,20.53,38.74,35.1,49.73,64,9.54,25.12,23.09,53.44,19.76,79.27-5.1,39.64-28.63,62-33.37,72.79C328.33,331,245.13,353.36,210.08,355c-11.44.53-20.47-3.38-31.62-5.78-10.48-2.26-22.11-4.82-27.67-8.29-9-5.62-25.26-24.87-35.44-31.47-14.51-9.4-37.83-39.47-40.1-69.29-3.15-41.16-10.43-72,16.28-111.57C100.55,115.21,113.1,109.7,119,99.36Z"/><path class="cls-4" d="M93.2,171.09c4.73,49.74-33,29.57,38.32,97.81,19.18,18.35,54.68,15.74,86.94,25.62,39.78,12.19,81.25-13.82,98.46-36.08,13.7-17.74,39.86-19.2,34.3-55.87-3.42-22.57-.36-27.47-11.37-51.75-15.09-33.25-6.38-33.81-36.69-65.08-21.24-21.92-88.73-33.61-117-10.11C144.06,110.57,86.49,100.48,93.2,171.09Z"/><path class="cls-3" d="M79.53,131.29c10.58,13.23-2.71,8.41,2.75,29.77.76,2.94,9,13.79,11.6,15.87,3.34,2.62,8.08,5.44,12.77,5.24,5.93-.26,9.7,4.33,19.77-.23,5.59-2.53,31.54-7.36,25-8.62-2.39-.93-29.26-1.92-34.68-2.59-4.58-.56-11.15-6.29-17.9-6-8.94.38-6.61-11.65-9.51-15.72,0,0-1.33-8.06-5.93-13.77C80.4,131.52,76.75,127.82,79.53,131.29Z"/><path class="cls-5" d="M77.46,128.39c12.79,14.79,4.31,10.5,5.61,28.18.23,3,8.41,9.36,11.06,11.44,3.34,2.62,8.62,8,13.31,7.84,5.93-.25,6.83,3.3,16.9-1.26,5.59-2.53,22.25-2.43,28.75-1-2.39-.93-30.14-6.64-35.56-7.31-4.59-.56-11.16-6.29-17.9-6-8.94.38-6.62-11.66-9.52-15.73,0,0-.21-.23-4.8-5.94C82.31,134.85,74.55,125,77.46,128.39Z"/><path class="cls-1" d="M75.93,127.17c12.79,14.78,5.84,15,7.14,32.65.23,3,8.41,9.35,11.06,11.43,3.34,2.62,8.62,8.05,13.31,7.84,5.93-.25,6.83,3.31,16.9-1.25,5.59-2.54,25-5.15,31.47-3.75-2.4-.93-32.86-3.93-38.28-4.59-4.59-.57-11.16-6.3-17.9-6-8.94.38-6.62-11.65-9.52-15.72,0-.05-1.32-8.05-5.92-13.77C81.19,130.28,73,123.81,75.93,127.17Z"/><path class="cls-4" d="M233.16,298.51c6.91,1.89,6.6,9.91,15.42,12.55,3.79,1.14,12.17,3.25,13.11,6.85,1.12,4.34,5.73,17.75,11.28,17.82,9,.1,13.41,8.88,19.85,4.94,8-4.88,28.41-4.43,33.59-8.32,2-1.53,7.21-.85-3.56-.29-5.77.3-13.29,3.91-20.58-1.55-3.95-2.95-11.26,8.68-17.7,4-5.55-4-5.17-1.85-10.06-7.17-4.29-4.65-6.93-10.18-10.68-15.82-1.62-2.44-11-2.3-17.68-9.23C242.39,298.39,232.67,298.37,233.16,298.51Z"/><path class="cls-1" d="M232.42,297.76c6.91,1.9,7.34,13.87,16.16,16.51,3.79,1.14,12.17,3.25,13.11,6.85,1.12,4.34,5.73,17.75,11.28,17.82,9,.1,13.41,8.88,19.85,4.94,8-4.88,32.46-7.74,37.63-11.63,2-1.53,6.09-.47-4.67.1-5.78.3-16.22,6.83-23.51,1.38-3.95-3-11.26,7.07-17.7,2.41-5.55-4-3.62-1.8-8.51-7.12-4.29-4.65-8.48-8.62-12.23-14.26-1.62-2.44-11-4.14-17.68-11.07C242.39,299.77,232.9,297.89,232.42,297.76Z"/><path class="cls-5" d="M185,128c6.62,4.15,2.53,9,14.51,15.46,4.32,2.35,9.26,7.9,9.06,13.43-.13,3.72.41,12.22-.8,15.15-1.68,4.08.36,27.08,2.26,31.2.34.75,3.88,12.29,2.39,6.21-1.75-7.17-1.11-21.66,4-27.78,2.89-3.48,4.58-17.87,2.19-21.23-3.07-4.3,7.58-15-10.71-19C197.69,139.14,190.76,125.85,185,128Z"/><path class="cls-3" d="M185.55,128.91c6.62,4.15-2.13,10.08,9.86,16.58,4.32,2.34,9.26,7.9,9.06,13.43-.14,3.71.4,12.21-.8,15.14-7.36,17.83,10.09,43.85,7.75,34.31-1.76-7.17-4.22-20.85.85-27,2.88-3.48,1.59-15.58-.8-18.93-3.07-4.31,7.38-14.18-10.71-19-8.29-2.22-9.12-12.2-15.21-15.38Z"/><path class="cls-1" d="M184.51,127.87C191.14,132,186,139,197.94,145.49c4.32,2.34,9.26,7.9,9.06,13.43-.14,3.71.4,12.21-.8,15.14-1.69,4.09.36,27.08,2.25,31.21.35.75,5.58,10.59,4.09,4.51-1.75-7.17-2.81-22.26,2.26-28.38,2.88-3.48,1.59-15.58-.8-18.93-3.07-4.31,7.38-14.18-10.71-19-8.28-2.22-11.65-12.2-17.74-15.38Z"/><path class="cls-4" d="M107.92,249c-1,9-1.61,11.12-1.13,21.17.11,2.44,9.59,3.28,13.38,12.77,3.55,8.87,13.4,4.73,15.07,18.32.67,5.49,4.9,16.25,4.63,22-.09,1.9,1.79,11.52,3.17,11.47,4.46-.14,10.68,3.57,19.77,3.21,1.63-.06,3.62,5.05,13.35,4.59,9.52-.44,12.49,12.14,16.94,19.22,2.42,3.86,1,2.4,1-.58,0-1.15-5.11-19.51-6.91-20-3-.84-13.9-4-15.53-5.93-8.2-9.5-18.07,4.91-22.91-21.76-.93-5.15-1.66-3.07-2.41-8.49-.43-3.14-3.65-16.55-5.89-18.12-3.7-2.6-8.19-6-14.11-5.82-5.16.15.35-14.65-6.61-16.06-3.84-.78-4.21-9.09-8.42-15.61C106.63,242.13,109.35,253.47,107.92,249Z"/><path class="cls-1" d="M107.92,249.26c-1,8.95-4.64,12.09-4.17,22.15.12,2.43,9.6,3.27,13.39,12.77,3.55,8.87,13.39,4.72,15.07,18.31.67,5.49,4.9,16.25,4.63,22-.09,1.9,1.79,11.52,3.17,11.47,4.46-.14,10.68,3.58,19.77,3.22,1.63-.07,3.62,5,13.35,4.59,9.51-.45,16.51,13.57,21,20.65,2.42,3.85.17.27.16-2.72,0-1.15-8.3-18.81-10.1-19.31-3-.84-14.41-3.7-15.52-5.93-5.31-10.62-13.22,3-22.91-21.76-1.9-4.88-1.66-3.07-2.41-8.49-.44-3.14-3.66-16.55-5.89-18.12-3.7-2.59-5.1-6-11-5.82-5.16.16-2.75-14.65-9.72-16.06-3.83-.78.18-11.82-6-16.52-1.6-1.21-2.7-6.26-2.26,1.11Z"/><path class="cls-5" d="M154.27,206.61c-2.23-.81,8,7.83,8,9.24-.11,3.33,2,14.3,4.54,15.87,6.84,4.14,12.08,1.87,17,10.21,3.54,6,8.23,15.2,9,22.07.1.87,5.56,10,3.25,12.81-1.63,2,1,2.93-8,9.67-5,3.81-13,8.46-13,15.12,0,3-1.38,5.31-1,5.89,1.21,1.66,5.8-5.58,11-9.23,3.39-2.39,4.29-3.74,9.29-4,.47,0,16.9-13.34,16.59-14.84-2-9.36-6.54-18.57-9.67-27-.05-.14-11.27-15.9-19.88-21.95-10.76-7.57-12.2,2.47-15-14.69C165.56,210.78,159.16,208.38,154.27,206.61Z"/><path class="cls-3" d="M153.38,206.24c-2.23-.8,4.92,8.2,4.87,9.61-.12,3.33-.17,14.3,2.41,15.87,6.84,4.14,12.08,1.87,17,10.21,3.54,6,8.23,15.2,9,22.07.1.87,5.56,10,3.25,12.81-1.63,2,1,2.93-8,9.67-5,3.81-10.85,9.48-10.85,16.15,0,3.22,3.19,4.76,3.33,5.18.36,1.09-1.38-5.4,4.51-9.55,3.39-2.39,4.29-3.74,9.29-4,.47,0,13.69-14.94,13.38-16.45-2-9.36-6.08-17-9.21-25.39-.05-.14-8.52-15.9-17.13-21.95-10.76-7.57-10.13,2.47-13-14.69C161.48,210.78,158.27,208,153.38,206.24Z"/><path class="cls-1" d="M152.49,205.91c2.23.8,8.77,8.53,8.72,9.94-.11,3.33-.17,14.3,2.41,15.87,6.84,4.14,12.08,1.87,17,10.21,3.54,6,8.24,15.2,9,22.07.1.87,5.56,10,3.25,12.81-1.63,2,1,2.93-8,9.67-5,3.81-10.86,9.48-10.86,16.15,0,11.61-.32,1.38,7.84-4.37,3.39-2.39,4.29-3.74,9.3-4,.46,0,13.68-14.94,13.37-16.45-2-9.36-6.08-17-9.21-25.39-.05-.14-8.52-15.9-17.13-21.95-10.76-7.57-12.2,2.47-15-14.69C162.37,210.78,157.38,207.67,152.49,205.91Z"/><path class="cls-2" d="M346,157.78c1,11.18,3.73,27.38-.55,36.91-3.07,6.82,26.22,29.37,23.71,34.39-4.52,9,14,9.39-6.58,26.18-4.23,3.45-9.34,13.93-14.59,17.31-5,3.23-.88,28.56-.48,34.43.06.89,7.61-24,11.79-28.8,2.44-2.78,3.54-7.31,7.68-10.43,2.49-1.88,13.32-12.62,13.13-14.93-.62-7.93-.06-18.22.53-27.63.58-9.21-8.05-4.59-12.51-10.77-.9-1.24-10.94-9.45-10.92-13.13,0-.05-3.42-5.5-.9-11.43C351.77,183.81,360.71,181,346,157.78Z"/><path class="cls-4" d="M344.94,156c.94,11.18-4.92,29.18-9.2,38.71-3.07,6.82,30.58,29.37,28.07,34.39-4.52,9,9.63,9.39-10.94,26.18-4.23,3.45-8.3,15-13.56,18.34-5,3.24,7.42,25.7,7.82,31.57.06.89-1.72-22.18,2.46-27,2.44-2.78,3.54-7.31,7.68-10.43,2.49-1.88,16.76-16.29,16.57-18.6-.62-7.93-3-10.5-2.39-19.91.59-9.2-8.57-8.64-13-14.82-.9-1.24-10.94-9.45-10.92-13.13,0-.05-3.42-5.5-.9-11.43-.71-1.36,3.14-11.18-.71-21.32C343.7,162.77,349.22,161.89,344.94,156Z"/><path class="cls-1" d="M344.94,156c.94,11.18-.56,29.18-4.84,38.71-3.07,6.82,26.22,29.37,23.71,34.39-4.52,9,14,9.39-6.58,26.18-4.23,3.45-9.34,13.93-14.59,17.31-5,3.23,4.76,30.41,5.17,36.28.06.9,2-25.86,6.14-30.65,2.44-2.78,3.54-7.31,7.67-10.43,2.5-1.88,16.77-16.29,16.58-18.6-.62-7.93-3-10.5-2.39-19.91.59-9.2-8.57-8.64-13-14.82-.9-1.24-10.94-9.45-10.92-13.13,0-.05-3.42-5.5-.9-11.43-.71-1.36,3.14-11.18-.71-21.32C348.06,162.77,349.22,161.89,344.94,156Z"/><path class="cls-4" d="M147.64,75.77c10.83-5,12.47,4.71,21.93-10.12.65-1,6.81-7.24,8.74-10.29,1.15-1.83,19.11-2.4,21.72-1.64,10.47,3.08,8.46-2.17,9.19,12,.23,4.29,2,5,6.85,7.87.35.2,21.12,7.08,13.08,4.87-3.13-.86-9.45,3.13-14.21.43-3.25-1.84-8.3-2.88-10.38-9.77-.42-1.42-4.21-6.61-6.67-6.37-3.2.33-11.57,5.41-14.16,9.17-1.26,1.85-9.46,9.64-10.84,10C162.58,84.3,157.06,79.51,147.64,75.77Z"/><path class="cls-1" d="M147.64,75.77c10.83-5,12.47,2.76,21.93-12.07.65-1,6.81-7.23,8.74-10.29,1.15-1.83,19.11-2.4,21.72-1.64,10.47,3.08,8.46-2.17,9.19,12,.23,4.29,2,5,6.85,7.87.35.2,20.09,8.77,12.05,6.56-3.12-.86-8.42-.28-13.18-3-3.25-1.84-8.3-1.16-10.38-8.05-.42-1.42-3.64-8.52-6.1-8.28-3.2.33-14.49,5-17.08,8.73-1.27,1.85-7.91,11.24-9.3,11.57C161.78,81.61,157.06,79.51,147.64,75.77Z"/><path class="cls-3" d="M111.62,103.87c4.27-3.11,17.38-.61,24.29,1.2,17.38,4.54,12.09.71,27.19.44.15,0,21.84,8.15,34.19,5.66,2.33-.47,22.93,1.8,24.78,1.07.09,0,27-7.51,27.12-7.53,4.53-.75,6.87-2.27,5.65-5.08-3.06-7-1.14-7.09,6.3-13,6.52-5.16,31.2-1.69,36.55-4.3,1-.51,25.05-9.41,25.21-9.4-1.44-.1-17.59,3.67-22.4,3.78-4.07.09-11.49,1-16.92,1-4.66,0-24.31-.89-26.59-.09-6.64,2.31-16.23,5.26-21.57,8.23-4.82,2.67,3.08,11.58-4.13,14-19.63,6.65-17.94,2.29-39.2,5.49-8.82,1.33-12.63-5.67-28.05-3.18-14.19,2.3-16.08,2.59-33.91,1C113.17,101.64,109.83,105.18,111.62,103.87Z"/><path class="cls-5" d="M112.21,104.07c4.28-3.12,17.11-3.21,24-1.4,17.38,4.55,11.76-.91,26.86-1.19.15,0,21.84,8.15,34.19,5.67,2.33-.47,22.93-.27,24.78-1,.09,0,25.17-7.28,25.29-7.3,4.52-.75,7.09-.44,5.87-3.25-3.06-7,.47-7.08,7.91-13,6.52-5.16,31.2-1.69,36.55-4.3,1-.5,22.78-5.32,22.95-5.31-1.44-.1-15.33-.42-20.14-.31-4.07.09-11.49,1-16.92,1-4.66,0-24.31-2.72-26.59-1.92-6.64,2.31-17.83,5.49-23.18,8.46C229,83,237.25,92.66,230,95.1c-19.63,6.65-16.69,3.09-37.95,6.29-8.82,1.33-12.63-7.28-28.05-4.78-14.19,2.3-16.08,4.19-33.91,2.56C113.17,97.62,110.42,105.38,112.21,104.07Z"/><path class="cls-1" d="M111.81,104.07c4.27-3.12,17.19-2.77,24.1-1,17.38,4.55,12.09.72,27.19.45.15,0,21.84,8.15,34.19,5.66,2.33-.47,22.93-.26,24.78-1,.09,0,25.17-7.29,25.29-7.3,4.52-.76,7.09-.44,5.87-3.25-3.06-7.05.47-7.09,7.91-13,6.52-5.16,31.2-1.69,36.55-4.3,1-.51,28.72-8.49,28.89-8.49-1.44-.1-21.27,2.76-26.08,2.87-4.07.09-11.49,1-16.92,1-4.66,0-24.31-.89-26.59-.09C250.35,78,240.76,81,235.42,84c-4.82,2.67,3.08,11.58-4.13,14-19.63,6.65-17.94,2.29-39.2,5.49-8.82,1.33-12.63-5.67-28.05-3.18-14.19,2.3-16.08,2.59-33.91,1C113.17,99.69,110,105.38,111.81,104.07Z"/><path class="cls-4" d="M346.29,97.44c0,4.26-.62-3.87,0,.28,1.16,7.82-4.29,4.81,2.34,14.55,3.56,5.22,1.67,13.22,4.8,19.41,2.32,4.59-1.91,6.77,5.26,6.46,1.18,0,3.05,10.16,2.86,12.8-.07,1,7.54,9.58,7.46,11.93,0,.38,2.64,8.57,2.78,11.62.09,2.14,3.33,9.34,3.13,3-.1-3.13,1-2.63-.8-9.66-1-3.93.19-7.45-2.29-11.82-1.42-2.49-3-9.5-4.94-11.95-1.6-2.05-1.36-8.24-3.75-10.1s-2.59-1.53-4.62-2.73c-1.69-1-4.71-8.41-5.17-10.84-.89-4.7-1.19-12.21-4.68-15.24-1.18-1-2-1-2-3.18A27.31,27.31,0,0,0,346.29,97.44Z"/><path class="cls-1" d="M345.6,86.74a62.13,62.13,0,0,0,.48,10.77c1.16,7.82-2.72,5,3.92,14.76,3.55,5.22,1.67,13.22,4.8,19.41,2.32,4.59-1.91,6.77,5.25,6.46,1.19,0,5.24,9.3,5.05,11.94-.07,1,5.36,10.44,5.28,12.79,0,.39,2.63,8.57,2.77,11.62.1,2.14,2,10.66,1.82,4.29-.1-3.13,2.36-3.95.52-11-1-3.93.18-7.45-2.3-11.82-1.41-2.49-3-9.5-4.93-11.95-1.61-2.05-1.36-8.24-3.75-10.1s-2.6-1.53-4.63-2.73c-1.69-1-4.7-8.41-5.16-10.84-.89-4.7-1.2-12.21-4.68-15.24-1.19-1-3.75-6.68-3.75-8.91C346.29,94.42,345.6,87.24,345.6,86.74Z"/><path class="cls-3" d="M265.41,214.89c5.62-8.59,16.52-30.15,25.79-33.41,6.34-2.24,9.47-20.91,18.23-24.4,2.54-1,25.8-21.58,22.68-17.06-2.27,3.3-19.51,21.44-19.36,22.1,1.6,6.6-.83,32.58-4.16,33.57-2.69.81-24.68,15.42-25.54,16.86-1.64,2.73-5.72,22.83-5.83,27.32-.29,11.59,7.84,21.55,11.76,33.54,1.93,5.91-9.07-10.28-10.58-14.92-2.56-7.81-9.81-15.89-10.53-25.87-.26-3.74-2.88-10-1.82-13.35C266.05,219.25,265.61,214.58,265.41,214.89Z"/><path class="cls-5" d="M257.67,209.48c5.62-8.59,18.36-28.31,27.62-31.58,6.34-2.24,9.47-20.9,18.23-24.39,2.38-.95,27.8-15.87,28.59-13.62.24.69-3.45,2.77-8.68,7.57-1.9,1.74-16.88,9.86-16.58,11.08,1.6,6.6-3.93,29.48-7.26,30.48-2.7.8-24.68,15.42-25.55,16.86-1.63,2.72-2.62,25.93-2.73,30.41-.29,11.59,9.68,21.55,13.6,33.55,1.93,5.9-10.91-10.29-12.42-14.92-2.55-7.82-11.64-17.73-12.36-27.72-.27-3.73-2.88-10-1.83-13.34C258.31,213.84,257.47,209.78,257.67,209.48Z"/><path class="cls-1" d="M263.35,213.42c5.61-8.58,16.52-30.14,25.78-33.4,6.35-2.24,9.47-20.91,18.23-24.4,3.11-1.24,40.24-28.67,17.85-8.11-1.91,1.74-14.82,11.92-14.52,13.14,1.6,6.6-3.93,29.49-7.26,30.48-2.7.81-24.68,15.42-25.54,16.86-1.64,2.73-2.63,25.93-2.74,30.41C274.86,250,283,260,286.91,272c1.93,5.9-9.06-10.29-10.58-14.92-2.55-7.81-9.81-15.89-10.52-25.88-.27-3.73-2.89-10-1.83-13.34C264,217.79,263.54,213.12,263.35,213.42Z"/><path class="cls-1" d="M305.71,104.08c4,6.83,11.75,3.08,17.57.5,3.56-1.57,7.21-6.08,5.88-10.48-2.1-7-3.75-9.27-8.92-14.57-7.63-7.83-14.63-6.34-21.53,1.19S300.69,95.54,305.71,104.08Z"/><path class="cls-6" d="M305.13,100.67c3.34,5.68,9.77,2.56,14.61.42,3-1.32,6-5.07,4.9-8.73-1.76-5.8-3.13-7.71-7.43-12.12-6.34-6.51-12.17-5.27-17.91,1S301,93.56,305.13,100.67Z"/><path class="cls-7" d="M309.46,95.47c4.14,2.34,7-1.93,9.27-5,1.38-1.89,1.92-5.33-.1-7.22-3.19-3-4.73-3.68-9-4.87-6.32-1.77-9.5,1.11-10.82,7.09S304.29,92.55,309.46,95.47Z"/><path class="cls-8" d="M309.85,90.06c3.13.13,3.55-3.23,3.94-5.71.25-1.52-.46-3.69-2.2-4.2a11.22,11.22,0,0,0-6.74-.17c-4.23.84-5.24,3.48-4.23,7.38S306,89.88,309.85,90.06Z"/><path class="cls-1" d="M211.36,65.11c0,2.61.63,3.74,2.22,5.9,5.2,7,19.19-1.56,14.95-9.41a13,13,0,0,0-4.61-5.25C216.87,51.71,211.36,60.79,211.36,65.11Z"/><path class="cls-6" d="M212.6,63.94c0,2.12.5,3,1.81,4.81,4.23,5.72,15.64-1.28,12.18-7.68a10.7,10.7,0,0,0-3.76-4.28C217.08,53,212.6,60.41,212.6,63.94Z"/><path class="cls-7" d="M214.33,62.25a4.94,4.94,0,0,0,1.33,3.52c3.1,4.2,11.46-.93,8.92-5.62A7.62,7.62,0,0,0,221.83,57C217.62,54.24,214.33,59.67,214.33,62.25Z"/><path class="cls-8" d="M217.67,60.19a2.82,2.82,0,0,0,.77,2c1.79,2.43,6.63-.54,5.16-3.25A4.43,4.43,0,0,0,222,57.16C219.57,55.56,217.67,58.7,217.67,60.19Z"/><path class="cls-1" d="M265.67,122.72c-5.57-.48-25.35-9.27-27.17,5.36-1.13,9.1-12.95,11.89-12.25,18.83,2.17,21.38,29.69,3,36-1.95C265.91,142.1,279.05,123.89,265.67,122.72Z"/><path class="cls-6" d="M263.39,123.31c-4.67-.41-21.24-7.76-22.76,4.49-.95,7.62-10.85,10-10.26,15.77,1.82,17.92,24.87,2.47,30.14-1.63C263.59,139.54,274.6,124.29,263.39,123.31Z"/><path class="cls-7" d="M259.23,124.05c-3.29-.29-15-5.47-16,3.15-.67,5.37-7.64,7-7.22,11.11,1.28,12.6,17.5,1.73,21.21-1.15C259.37,135.47,267.11,124.74,259.23,124.05Z"/><path class="cls-8" d="M259.06,128.22c-3.58-3.46-11.89-8.37-14.36-1s7.75,7.64,10.19,7.46C256.32,134.56,262.58,131.61,259.06,128.22Z"/><path class="cls-1" d="M108.58,106.78c-9.49-.89-12.47.85-17.75,8.6-1.36,2-2,6.61-1.09,9.37,2.29,7.07,3.68,5,6.75,9.68,2.75,4.23,16.73-2.12,20-4.28C134.42,118,132.43,109.05,108.58,106.78Z"/><path class="cls-6" d="M107.65,108.17c-7.59-.71-10,.68-14.2,6.87a10.57,10.57,0,0,0-.87,7.5c1.83,5.66,2.94,4,5.39,7.74,2.21,3.38,13.39-1.69,16-3.42C128.31,117.15,126.72,110,107.65,108.17Z"/><path class="cls-7" d="M104.56,109.75c-5.26-.49-6.92.47-9.84,4.77a7.31,7.31,0,0,0-.61,5.2c1.27,3.92,2,2.75,3.74,5.37,1.53,2.34,9.29-1.18,11.07-2.38C118.9,116,117.79,111,104.56,109.75Z"/><path class="cls-8" d="M102.43,110.4c-3.09-.29-4.06.28-5.77,2.79a4.3,4.3,0,0,0-.35,3c.74,2.3,1.19,1.61,2.19,3.14s5.43-.68,6.48-1.39C110.82,114.05,110.17,111.14,102.43,110.4Z"/><path class="cls-1" d="M349.09,190.05c5.09,5.31,18.84,13.3,25.22,6.75C403.26,167.09,331.37,171.59,349.09,190.05Z"/><path class="cls-6" d="M351.4,187.64c4.09,4.27,15.13,10.68,20.25,5.42C394.9,169.21,337.17,172.82,351.4,187.64Z"/><path class="cls-7" d="M357.66,185.45c2.79,2.91,10.33,7.29,13.83,3.7C387.36,172.87,348,175.33,357.66,185.45Z"/><path class="cls-8" d="M366,187.82c2.36.34,7.48-.37,7.8-3.32C375.24,171.1,357.73,186.64,366,187.82Z"/><path class="cls-1" d="M278,225.51c-1.61,4.42-.93,7.83,2,11.63,4.33,5.66,17.53-4.16,21.65-5.69,3.95-1.47,6.92-2,6.35-7.29-.31-2.83-5.49-6.84-6.76-9.69C295.8,202.28,280.74,218,278,225.51Z"/><path class="cls-6" d="M281.65,224.14c-1.33,3.66-.77,6.48,1.65,9.64,3.59,4.68,14.52-3.45,17.93-4.72s5.73-1.69,5.26-6c-.25-2.34-4.54-5.67-5.6-8C296.38,204.9,283.9,218,281.65,224.14Z"/><path class="cls-7" d="M286.22,221.63a6.24,6.24,0,0,0,1.13,6.59c2.45,3.2,9.93-2.36,12.26-3.23s3.92-1.16,3.6-4.14c-.17-1.6-3.11-3.87-3.83-5.48C296.29,208.46,287.76,217.39,286.22,221.63Z"/><path class="cls-8" d="M289.45,218.64a3.82,3.82,0,0,0,.69,4c1.5,1.95,6.05-1.43,7.47-2s2.39-.7,2.19-2.52c-.11-1-1.89-2.36-2.33-3.34C295.59,210.63,290.39,216.06,289.45,218.64Z"/><path class="cls-1" d="M297.71,305.42c0,4.62,1.11,6.63,3.94,10.45,9.21,12.46,34-2.76,26.49-16.68-2.18-4-4.23-6.71-8.17-9.3C307.47,281.66,297.71,297.75,297.71,305.42Z"/><path class="cls-6" d="M301.19,303.26c0,3.71.88,5.32,3.15,8.38,7.38,10,27.27-2.21,21.23-13.37a18.37,18.37,0,0,0-6.54-7.45C309,284.22,301.19,297.12,301.19,303.26Z"/><path class="cls-7" d="M304,300.55c0,2.66.64,3.82,2.27,6,5.31,7.18,19.62-1.6,15.28-9.63a13.19,13.19,0,0,0-4.72-5.36C309.61,286.85,304,296.13,304,300.55Z"/><path class="cls-8" d="M307.29,297.68a5.45,5.45,0,0,0,1.45,3.86c3.4,4.6,12.56-1,9.78-6.16a8.38,8.38,0,0,0-3-3.43C310.89,288.91,307.29,294.85,307.29,297.68Z"/><path class="cls-1" d="M219.59,271.8c2.84,3.38,18.32,11.26,24.37-1.4,2-4.11-2.29-6.07,3-12,4.44-5,2.82-13.72-4-13.72-6.52,0-4.27,3.14-12.42,3.46C226.44,248.31,190.44,237.22,219.59,271.8Z"/><path class="cls-6" d="M223.33,268.25c2.36,2.8,15.21,9.35,20.24-1.16,1.63-3.42-1.9-5,2.46-10,3.7-4.16,2.35-11.39-3.32-11.39-5.42,0-3.55,2.6-10.32,2.86C229,248.74,199.12,239.53,223.33,268.25Z"/><path class="cls-7" d="M227.43,262.05c1.57,1.86,10,6.18,13.37-.76,1.08-2.26-1.25-3.33,1.63-6.58,2.44-2.75,1.55-7.53-2.19-7.53-3.58,0-2.35,1.72-6.82,1.9C231.2,249.16,211.44,243.08,227.43,262.05Z"/><path class="cls-8" d="M231.83,257.39c5.94,7.06,11.3-7.84,6.75-7.84C232.34,249.55,225.34,249.7,231.83,257.39Z"/><path class="cls-1" d="M177.92,324.92C181,342.05,194.2,356,210,340.59,234.71,316.54,175.15,309.32,177.92,324.92Z"/><path class="cls-6" d="M180.86,324.55c2.57,14.44,13.73,26.22,27.08,13.21C228.76,317.47,178.52,311.39,180.86,324.55Z"/><path class="cls-7" d="M183.59,323.2c1.7,9.57,9.09,17.37,17.93,8.75C215.3,318.52,182,314.49,183.59,323.2Z"/><path class="cls-8" d="M186.83,322c1,5.61,5.33,10.19,10.52,5.13C205.44,319.27,185.92,316.9,186.83,322Z"/><path class="cls-1" d="M79.7,224c-4.72,5.77-12,20.07-.45,25.13,3.12,1.37,5.79-.74,9.2-.63,8.56.27,14.51-7.58,14.51-13.14,0-3.44.25-5.25-3-7.51-.85-.6-4.13-3.93-4.27-5.17C94.81,214.5,82.36,220.78,79.7,224Z"/><path class="cls-6" d="M81,224c-4,4.9-10.17,17.06-.38,21.36,2.65,1.17,4.92-.63,7.82-.53,7.27.23,12.34-6.45,12.34-11.17,0-2.93.2-4.46-2.55-6.39-.72-.51-3.51-3.34-3.63-4.39C93.8,215.88,83.21,221.22,81,224Z"/><path class="cls-7" d="M84.44,224.5c-2.76,3.37-7,11.7-.26,14.65,1.81.79,3.37-.44,5.36-.37,5,.16,8.45-4.42,8.45-7.65,0-2,.14-3.06-1.74-4.38-.5-.35-2.41-2.29-2.49-3C93.24,219,86,222.62,84.44,224.5Z"/><path class="cls-8" d="M87.51,224.82c-1.54,1.87-3.88,6.51-.15,8.15,1,.45,1.88-.24,3-.2a4.7,4.7,0,0,0,4.71-4.26c0-1.12.08-1.71-1-2.44a5.05,5.05,0,0,1-1.39-1.68C92.41,221.73,88.37,223.77,87.51,224.82Z"/><path class="cls-1" d="M169.49,198.38c9.36-1.81,7.7-10,6.73-16A10.56,10.56,0,0,0,166.07,174c-8.85,0-12.1.89-20.08,4.18-11.79,4.86-12.5,11.72-6.15,20.15S157.79,200.64,169.49,198.38Z"/><path class="cls-6" d="M169.72,195.35c7.45-1.44,6.13-7.94,5.36-12.77A8.43,8.43,0,0,0,167,176c-7.05,0-9.64.72-16,3.33-9.39,3.87-10,9.34-4.9,16.06S160.39,197.15,169.72,195.35Z"/><path class="cls-7" d="M168.64,189.64c5-1,4.09-5.29,3.58-8.51a5.61,5.61,0,0,0-5.39-4.42c-4.7,0-6.43.48-10.67,2.22-6.26,2.58-6.64,6.22-3.26,10.7S162.43,190.84,168.64,189.64Z"/><path class="cls-8" d="M169.17,185.82c3.13-.6,2.58-3.33,2.25-5.37a3.52,3.52,0,0,0-3.4-2.78,14.1,14.1,0,0,0-6.73,1.4c-3.95,1.62-4.18,3.92-2.06,6.75S165.25,186.58,169.17,185.82Z"/><path class="cls-1" d="M136.55,133.23c-.7.85-1.76,3-.06,3.7.46.21.85-.11,1.35-.09A2.14,2.14,0,0,0,140,134.9c0-.51,0-.77-.45-1.11-.12-.09-.61-.58-.63-.76C138.78,131.82,136.94,132.75,136.55,133.23Z"/><path class="cls-1" d="M164.65,272.46a2.06,2.06,0,0,0,.55,1.46c1.28,1.74,4.75-.39,3.7-2.33a3.18,3.18,0,0,0-1.14-1.3C166,269.14,164.65,271.39,164.65,272.46Z"/><path class="cls-1" d="M136.18,271.24c.49.58,3.15,1.94,4.19-.24.34-.71-.39-1,.51-2.06s.49-2.37-.69-2.37-.73.54-2.14.6C137.36,267.2,131.16,265.29,136.18,271.24Z"/><path class="cls-1" d="M148.91,312.8a3.18,3.18,0,0,0,.57,3.36c1.25,1.63,5.06-1.2,6.26-1.64s2-.59,1.83-2.11c-.09-.82-1.59-2-1.95-2.8C154,306.09,149.69,310.64,148.91,312.8Z"/><path class="cls-1" d="M141.19,113.12a2.14,2.14,0,0,0-2.47,1.2,1.84,1.84,0,0,0-.15,1.3c.32,1,.51.69.94,1.34s2.32-.29,2.77-.59C144.77,114.68,144.5,113.44,141.19,113.12Z"/><path class="cls-1" d="M334.29,157c-2.81-.24-10.85,2.54-10.46,6.42.58,5.68,7.23-.78,8.9-2.07C333.71,160.61,337.84,157.34,334.29,157Z"/><path class="cls-1" d="M326.07,124.44c.94,1.61,2.76.73,4.13.12a2.25,2.25,0,0,0,1.39-2.47,6.64,6.64,0,0,0-2.1-3.43c-1.8-1.85-3.45-1.5-5.08.28S324.88,122.43,326.07,124.44Z"/><path class="cls-1" d="M151.59,128.06c1.09-.21.89-1.16.78-1.86a1.24,1.24,0,0,0-1.18-1,5,5,0,0,0-2.33.49c-1.37.56-1.45,1.36-.71,2.34S150.23,128.32,151.59,128.06Z"/><path class="cls-1" d="M299.85,114a1.92,1.92,0,0,0,.52,1.36c1.2,1.62,4.43-.36,3.45-2.17a3,3,0,0,0-1.07-1.22C301.12,110.94,299.85,113,299.85,114Z"/><path class="cls-1" d="M72,210c-.93,1.13-2.35,3.94-.09,4.93.61.27,1.13-.15,1.8-.13a2.84,2.84,0,0,0,2.85-2.57c0-.68,0-1-.58-1.48-.17-.12-.82-.77-.84-1C75,208.17,72.51,209.4,72,210Z"/><path class="cls-1" d="M99.31,188.71c-1.76-.17-2.31.15-3.28,1.59a2.41,2.41,0,0,0-.2,1.73c.42,1.3.68.91,1.24,1.78s3.09-.39,3.69-.79C104.08,190.78,103.71,189.13,99.31,188.71Z"/><path class="cls-1" d="M127.26,220.2c1.44-.28,1.18-1.54,1-2.47a1.65,1.65,0,0,0-1.57-1.29,6.43,6.43,0,0,0-3.1.65c-1.82.75-1.93,1.81-.95,3.11S125.45,220.55,127.26,220.2Z"/><path class="cls-1" d="M79.82,199.36a1.41,1.41,0,0,0,1.51,1,1.19,1.19,0,0,0,.8-.34c.46-.51.23-.52.46-1s-.94-1.25-1.26-1.4C79.53,196.77,78.91,197.35,79.82,199.36Z"/><path class="cls-1" d="M269.16,97a1.42,1.42,0,0,0,.25,1.8,1.23,1.23,0,0,0,.8.37c.68,0,.54-.19,1-.32s.29-1.53.19-1.87C270.88,95,270,94.93,269.16,97Z"/><path class="cls-1" d="M314.66,127.13c.08-.73-.55-.8-1-.88a.82.82,0,0,0-.85.55,3.28,3.28,0,0,0-.17,1.58c.07,1,.56,1.19,1.33.92S314.54,128,314.66,127.13Z"/><path class="cls-1" d="M282.8,296c-.93,1.13-2.35,3.94-.09,4.93.61.27,1.13-.15,1.8-.12a2.85,2.85,0,0,0,2.85-2.58c0-.68.05-1-.59-1.48-.16-.12-.81-.77-.83-1C285.76,294.09,283.32,295.32,282.8,296Z"/><path class="cls-1" d="M290.63,285.28a1.42,1.42,0,0,0,1.51,1,1.26,1.26,0,0,0,.8-.35c.46-.51.22-.52.46-1s-.94-1.25-1.26-1.4C290.34,282.69,289.72,283.27,290.63,285.28Z"/><path class="cls-1" d="M337,235.87c.95,1.6,2.77.72,4.14.11a2.26,2.26,0,0,0,1.39-2.47,6.76,6.76,0,0,0-2.11-3.43c-1.79-1.85-3.45-1.49-5.07.28S335.77,233.85,337,235.87Z"/><path class="cls-1" d="M292.46,244.72a1.92,1.92,0,0,0,.52,1.36c1.19,1.62,4.43-.36,3.45-2.17a2.91,2.91,0,0,0-1.07-1.21C293.73,241.62,292.46,243.72,292.46,244.72Z"/><path class="cls-1" d="M318.49,275.06c.09-.73-.55-.81-1-.88a.83.83,0,0,0-.85.55,3.25,3.25,0,0,0-.17,1.57c.08,1,.57,1.2,1.34.93S318.38,276,318.49,275.06Z"/><path class="cls-1" d="M187,91.32a1.91,1.91,0,0,0,.51,1.36c1.2,1.63,4.43-.36,3.45-2.17a2.89,2.89,0,0,0-1.06-1.21C188.27,88.23,187,90.32,187,91.32Z"/><path class="cls-1" d="M207.9,219a1.91,1.91,0,0,0,.51,1.36c1.2,1.62,4.43-.36,3.45-2.18a3,3,0,0,0-1.06-1.21C209.17,215.86,207.9,218,207.9,219Z"/><path class="cls-1" d="M177.2,201.88a1.42,1.42,0,0,0,.26,1.8,1.17,1.17,0,0,0,.79.36c.68,0,.54-.18,1-.31s.29-1.53.19-1.87C178.92,199.93,178.08,199.85,177.2,201.88Z"/><path class="cls-1" d="M222.7,232.05c.09-.73-.55-.8-1-.88a.82.82,0,0,0-.85.55,3.25,3.25,0,0,0-.17,1.57c.08,1,.56,1.2,1.33.93S222.59,233,222.7,232.05Z"/><path class="cls-1" d="M223.12,176.86a1.41,1.41,0,0,0,1.51,1,1.19,1.19,0,0,0,.8-.34c.46-.51.23-.52.46-1s-.94-1.24-1.26-1.4C222.84,174.27,222.21,174.84,223.12,176.86Z"/><path class="cls-1" d="M248.9,217.38c.23-1.92-1.45-2.11-2.69-2.3a2.15,2.15,0,0,0-2.24,1.44,8.44,8.44,0,0,0-.45,4.15c.2,2.59,1.49,3.16,3.52,2.46S248.6,219.79,248.9,217.38Z"/><path class="cls-1" d="M244.21,66.54c.94,1.61,2.77.73,4.14.12a2.24,2.24,0,0,0,1.38-2.47,6.68,6.68,0,0,0-2.1-3.43c-1.8-1.85-3.45-1.5-5.07.28S243,64.53,244.21,66.54Z"/><path class="cls-1" d="M284.93,127.72a2.07,2.07,0,0,0,.55,1.46c1.29,1.74,4.76-.38,3.7-2.33a3.18,3.18,0,0,0-1.14-1.3C286.3,124.4,284.93,126.65,284.93,127.72Z"/><path class="cls-1" d="M269.19,168.07a3.2,3.2,0,0,0,.58,3.36c1.25,1.63,5.06-1.21,6.25-1.65s2-.59,1.83-2.11c-.08-.81-1.58-2-2-2.79C274.33,161.36,270,165.91,269.19,168.07Z"/></g></svg>