<svg id="Layer_1" data-name="Layer 1" xmlns="http://www.w3.org/2000/svg" viewBox="0 0 441.66 412.21"><defs><style>.cls-1{fill:#5e1b0c;}.cls-1,.cls-2,.cls-3,.cls-4,.cls-5,.cls-6,.cls-7,.cls-8{fill-rule:evenodd;}.cls-2{fill:#87250e;}.cls-3{fill:#a6401d;}.cls-4{fill:#ec7f2d;}.cls-5{fill:#f29236;}.cls-6{fill:#faa342;}.cls-7{fill:#ffb34c;}.cls-8{fill:#ffc563;}</style></defs><g id="_5" data-name="5"><path class="cls-1" d="M278.43,291.49c1.51,1.49,2.52,1.78,4.69,2.1,7.05,1,10.12-12,3.14-14a10.67,10.67,0,0,0-5.69-.35C273.84,280.61,275.93,289,278.43,291.49Z"/><path class="cls-2" d="M278.45,289.07a5,5,0,0,0,3.44,1.54c5.16.76,7.42-8.79,2.3-10.3a7.73,7.73,0,0,0-4.16-.25C275.09,281.1,276.62,287.25,278.45,289.07Z"/><path class="cls-3" d="M279.35,285.25a2.84,2.84,0,0,0,2,.89c3,.44,4.29-5.09,1.33-6a4.48,4.48,0,0,0-2.41-.15C277.4,280.63,278.29,284.2,279.35,285.25Z"/><path class="cls-1" d="M299.94,340.33c2.88.24,13.67-3.31,10.58-11.95-1-2.81-3.87-1.73-4.2-6.9-.27-4.38-5.06-7.64-8.21-4.47s-.51,3.43-4.12,7.36C292.19,326.33,270.45,337.93,299.94,340.33Z"/><path class="cls-2" d="M298.75,334.6c1.91.16,9-2.19,7-7.89-.66-1.86-2.55-1.15-2.77-4.56-.18-2.89-3.34-5-5.42-2.95s-.34,2.26-2.73,4.86C293.64,325.35,279.28,333,298.75,334.6Z"/><path class="cls-3" d="M298.59,329.56c7.24.6,1.89-10.66-.64-8.12C294.49,324.92,290.69,328.92,298.59,329.56Z"/><path class="cls-1" d="M369.68,177.79c9.43,6.54,22.13,6.83,22.27-7.75C392.16,147.3,361.09,171.83,369.68,177.79Z"/><path class="cls-2" d="M370.44,175.54c6.25,4.33,14.65,4.52,14.74-5.13C385.32,155.35,364.75,171.59,370.44,175.54Z"/><path class="cls-3" d="M371.56,173.08c3.67,2.55,8.6,2.66,8.66-3C380.3,161.23,368.22,170.77,371.56,173.08Z"/><path class="cls-4" d="M332.08,187.86c.11,1.1.86,3.34,2.58,2.66.47-.18.53-.68.89-1a2.13,2.13,0,0,0,.14-2.88c-.36-.36-.53-.57-1.1-.47a2.39,2.39,0,0,1-1-.09C332.65,185.29,332,187.25,332.08,187.86Z"/><path class="cls-4" d="M293.84,207.92a2.11,2.11,0,0,0-.89,2.59,1.8,1.8,0,0,0,.82,1c.92.47.85.12,1.61.28s1.43-1.85,1.53-2.38C297.48,206.47,296.4,205.79,293.84,207.92Z"/><path class="cls-4" d="M317,190.38c-5.36,4.52-14.52,23.55-7,29.65,11,8.91,11.27-14.09,11.9-19.3C322.27,197.67,323.74,184.67,317,190.38Z"/><path class="cls-4" d="M339,173.55c.61-.92-.19-1.45-.77-1.86a1.23,1.23,0,0,0-1.52.15,5,5,0,0,0-1.3,2c-.56,1.37-.05,2,1.16,2.15S338.24,174.7,339,173.55Z"/><path class="cls-4" d="M300,276.3c.15,1.45,1.15,4.44,3.44,3.53.62-.24.7-.9,1.19-1.36a2.84,2.84,0,0,0,.17-3.84c-.48-.48-.69-.76-1.46-.62a3.24,3.24,0,0,1-1.31-.12C300.75,272.88,299.9,275.48,300,276.3Z"/><path class="cls-4" d="M346.14,244.24c.82-1.22-.25-1.93-1-2.48a1.63,1.63,0,0,0-2,.21,6.53,6.53,0,0,0-1.73,2.65c-.75,1.82-.07,2.65,1.54,2.87S345.11,245.77,346.14,244.24Z"/><path class="cls-4" d="M297.93,263.21a1.42,1.42,0,0,0,1.79-.34,1.25,1.25,0,0,0,.32-.81c0-.69-.21-.53-.38-1s-1.54-.21-1.88-.09C295.89,261.6,295.86,262.44,297.93,263.21Z"/><path class="cls-4" d="M314.17,177.07a5,5,0,0,0,3.44,1.54c5.17.76,7.42-8.8,2.3-10.3a7.76,7.76,0,0,0-4.17-.26C310.81,169.09,312.34,175.25,314.17,177.07Z"/><path class="cls-4" d="M296.26,226.22c-1.18-1.49-2.48-.45-3.47.27a2.13,2.13,0,0,0-.54,2.57,8.45,8.45,0,0,0,2.58,3.18c1.94,1.65,3.22,1.14,4.14-.76S297.73,228.09,296.26,226.22Z"/><path class="cls-4" d="M349.94,162.29c-1.87-2.38-3.93-.72-5.5.43a3.37,3.37,0,0,0-.87,4.08,13.44,13.44,0,0,0,4.11,5c3.08,2.62,5.12,1.82,6.57-1.2S352.28,165.26,349.94,162.29Z"/><path class="cls-4" d="M277.74,334.23c3.22-2.13,1.2-5.8-.2-8.57-.86-1.69-3.15-3.35-5.26-2.59-3.34,1.2-4.41,2.06-6.86,4.71-3.62,3.91-2.71,7.29,1.13,10.45S273.71,336.89,277.74,334.23Z"/><path class="cls-4" d="M246.53,377.26c-72.67,4.05-52.74-355.47,128.28-260.52,4.76,2.49,9.56,12.37,12.05,15.7-13.06,2.08-15.49,9.73-17.43,22.75-22.55-7.55-54.41-.26-63,21.91-36.05,18.61-35.89,46.11-14.19,74.1-26.07,13.48-34.15,32.49-18.4,57-22.5,11.37-14.63,41-6.95,57.82C269.17,371.13,258.05,376.61,246.53,377.26Z"/><path class="cls-4" d="M66.76,144.47c3.88-41.32,70.59-95.36,96-100,21.2-3.85,52.49-21.18,91.92-9.73C289.39,44.84,311.72,53,336.83,78c14,13.91,30.35,28.41,42.57,44.54.39,1.18.81,2.38,1.27,3.6q-16.67,0-22.61,22.78A44.58,44.58,0,0,0,302.35,175q-54.08,27.92-21.53,69.9-39.09,20.22-15.48,57c-18.4,16-21.78,49.58-1.6,71.74-5.48,1-11.1,1.75-17,3-12,2.6-25.37,5.43-32.82,4.43-12-1.6-38.11-14-51.86-16-19.6-2.94-58.13-23.24-74.57-53.23-22.68-41.4-44.83-70.08-35.59-123.95C55,169.69,65.49,158,66.76,144.47Z"/><path class="cls-5" d="M181.85,356.2c-39,.17-94.85-57.23-101.19-80.58-5.29-19.47-24-47.12-16.41-85,6.67-33.36,12.56-55,33.9-80.75,18.53-22.38,38-50.22,63.93-61,39.86-16.5,73.22-6.56,85.79-7.9,39.05-4.17,99.31,54.75,122.39,88q-8.36,5.2-12.2,19.94A44.58,44.58,0,0,0,302.35,175q-54.08,27.92-21.53,69.9-39.09,20.22-15.48,57c-16,13.91-20.63,41.07-8.34,62.5a124.79,124.79,0,0,1-33.33,1.76C206.39,364.89,194.63,356.14,181.85,356.2Z"/><path class="cls-6" d="M75.15,203C65.42,168.1,103,103.32,122.26,91.67c16.1-9.71,36.21-33.54,71.94-36.41,31.44-2.53,52.2-2.76,80.46,9.82,24.55,10.93,54.19,21.27,70.18,41.83a116.52,116.52,0,0,1,17.3,31.18,48.66,48.66,0,0,0-4.08,10.79A44.58,44.58,0,0,0,302.35,175q-54.08,27.92-21.53,69.9-39.09,20.22-15.48,57c-13,11.33-18.52,31.46-13.47,50.11-10.75.21-23,.07-30.2,1.65-16.9,3.67-54.66-1-77.42-20.37C112.82,306.5,85.81,290,76.54,243.1,73.41,227.27,78.34,214.48,75.15,203Z"/><path class="cls-7" d="M107.88,271.86c38.62,31.69-2.24,44.23,96.41,41.73,18.42-.47,35.22-13.65,53.72-27q-7.74-25.92,22.81-41.72-32.55-42,21.53-69.9a44.54,44.54,0,0,1,27-26c1.51-12.56.61-24.88-17.38-38-18.42-13.47-19.74-19.1-44.73-28.39-34.23-12.72-28.49-19.3-72-19.83-30.52-.37-86.37,39.29-89.64,75.93C100.77,193.13,53.05,226.87,107.88,271.86Z"/><path class="cls-6" d="M70,253.52c16.86,1.82,4.07,7.85,23.07,19,2.62,1.54,16.09,3.37,19.44,3,4.21-.53,9.54-1.9,12.71-5.37,4-4.39,9.91-3.84,13.77-14.19,2.14-5.75,17-27.58,11.5-23.82-2.35,1-22,19.41-26.27,22.79-3.64,2.85-12.33,3.48-16.88,8.47-6,6.61-12.93-3.52-17.86-4.33-.06,0-6.65-4.73-13.94-5.49C70.78,253.06,65.59,253.05,70,253.52Z"/><path class="cls-8" d="M66.5,253c19.49,1.34,10.48,4.33,24,15.87,2.31,2,12.56.63,15.9.21,4.21-.52,11.78-.44,14.94-3.91,4-4.4,7.16-2.53,11-12.88,2.15-5.76,14-17.5,19.53-21.14-2.34,1.05-26,16.71-30.24,20.09-3.63,2.86-12.32,3.48-16.87,8.47-6,6.61-12.93-3.52-17.86-4.32-.06,0-.32,0-7.61-.78C74.5,254.06,62.06,252.64,66.5,253Z"/><path class="cls-4" d="M64.55,253.17c19.5,1.34,14.73,6.4,28.2,17.94,2.31,2,12.56.63,15.9.21,4.21-.52,11.78-.45,14.94-3.92,4-4.39,7.16-2.52,11-12.88,2.14-5.75,13.94-21.34,19.51-25-2.34,1-25.93,20.55-30.22,23.93-3.64,2.85-12.33,3.48-16.88,8.46-6,6.62-12.93-3.51-17.86-4.32-.06,0-6.65-4.73-14-5.49C70.46,251.63,60.12,252.87,64.55,253.17Z"/><path class="cls-8" d="M142,176.31c7.61-1.77,8.14,4.52,21.2.6,4.71-1.41,12.13-1,15.91,3,2.54,2.72,9,8.32,10.18,11.24C191,195.26,208.75,210,213,211.57c.77.28,11.46,5.9,6.09,2.67-6.33-3.81-16.16-14.47-16.93-22.37-.44-4.51-9.46-15.84-13.52-16.51-5.22-.86-5.32-16-21.06-5.81C158.83,175.21,144.52,170.76,142,176.31Z"/><path class="cls-6" d="M143,176.61c7.61-1.77,5.65,8.61,18.71,4.69,4.71-1.41,12.13-1,15.91,3,2.55,2.72,9,8.32,10.18,11.24,7.47,17.78,38.23,23.74,29.81,18.67-6.32-3.8-17.77-11.69-18.53-19.6-.44-4.5-9.94-12.11-14-12.77-5.22-.86-4.87-15.23-21.06-5.82-7.41,4.31-15.08-2.13-21.63,0Z"/><path class="cls-4" d="M141.55,176.62c7.62-1.78,8.9,6.81,22,2.88,4.71-1.41,12.13-1,15.92,3,2.54,2.71,8.95,8.31,10.18,11.23,1.71,4.08,19.47,18.83,23.73,20.39.78.29,11.45,3.51,6.08.28-6.32-3.81-17.77-13.69-18.54-21.6-.44-4.5-9.94-12.1-14-12.77-5.22-.86-4.86-15.23-21.06-5.81-7.41,4.31-16.86-.34-23.41,1.75Z"/><path class="cls-7" d="M173.52,316.29c5.67,7,6.76,9,14.22,15.73,1.81,1.63,9.08-4.5,18.5-.51,8.79,3.74,12.79-6.17,23.61,2.22,4.37,3.39,15,8,18.89,12.24a18,18,0,0,0,2.16,1.73,53.7,53.7,0,0,1-.75-13.53c-.67-.44-1.37-.9-2.1-1.4-4.31-3-3.35-1-7.72-4.27-2.54-1.91-14.33-9.07-17-8.59-4.45.8-10,1.59-14.07,5.91-3.53,3.77-10.15-10.57-16.06-6.62-3.26,2.17-9.41-3.41-17-5C167.75,312.39,177.71,318.45,173.52,316.29Z"/><path class="cls-4" d="M173.73,316.49c5.66,7,5.3,11.82,12.77,18.57,1.81,1.63,9.08-4.5,18.5-.5,8.79,3.73,12.79-6.18,23.61,2.21,4.37,3.39,15,8,18.89,12.24a30.62,30.62,0,0,0,4.46,3.28A53.65,53.65,0,0,1,250,337.12c-1-.39-2.08-.82-3.21-1.31-4.8-2.08-3.35-1-7.72-4.27-2.54-1.9-14.33-9.07-17-8.59-4.45.8-7.85-.61-11.89,3.72-3.53,3.77-12.33-8.38-18.24-4.43-3.26,2.18-8.27-8.45-16-7.38-2,.28-6.34-2.49-.8,2.39Z"/><path class="cls-8" d="M176.12,253.56c-2.15,1,11.23-.2,12.19.83,2.29,2.42,11.53,8.69,14.46,8,7.76-1.93,9.84-7.25,19.24-4.88,6.72,1.69,16.59,4.86,22,9.17.68.55,11,3.13,11.38,6.72.1,1.1.63,1.51,1.08,2.5A27.53,27.53,0,0,1,261.22,261c-6.45-3.23-13.38-5.71-19.44-8.47-.14-.06-19.22-3.2-29.59-1.36-12.94,2.31-6.83,10.4-21,.32-4.16-3-10.37-.11-15.07,2.12ZM257,282.44c-.08,1-.2,2.1-.37,3.39-.86,6.26-3.18,15.2,1.55,19.89a12.23,12.23,0,0,1,1.63,2.06,39.37,39.37,0,0,1,2.77-3.26,49.09,49.09,0,0,1,.11-7A50,50,0,0,1,257,282.44Z"/><path class="cls-6" d="M175.23,253.93c-2.15,1,9.28,2.29,10.25,3.31,2.28,2.43,10,10.2,13,9.47,7.76-1.93,9.84-7.25,19.23-4.88,6.73,1.7,16.59,4.87,22,9.18.69.55,11,3.12,11.38,6.72.25,2.55,2.78,1.37,1.26,12.46-.85,6.27-.92,14.38,3.81,19.08A4.61,4.61,0,0,0,258,310.4c.59-.9,1.21-1.78,1.86-2.63a10.21,10.21,0,0,1-1.29-7.14c.55-3.24.47-4.91,2.07-7.3q-6.3-13.6-3-24.67c-7.26-4.22-14.7-6.52-22.06-9.86-.14-.07-17.28-5.16-27.65-3.31-13,2.3-5.38,8.92-19.55-1.16C184.16,251.37,179.92,251.7,175.23,253.93Z"/><path class="cls-4" d="M174.36,254.32c2.15-1,12.24-.2,13.2.82,2.29,2.43,10,10.2,13,9.47,7.76-1.93,9.84-7.25,19.24-4.88,6.73,1.69,16.59,4.87,22,9.18.69.55,11,3.12,11.38,6.71.25,2.56,2.77,1.38,1.26,12.47-.86,6.26-.93,14.38,3.8,19.08l1.19,1.18c.51-.67,1-1.33,1.56-2a20,20,0,0,1-.32-7.85c.26-1.57.38-2.77.61-3.87q-7.94-16.11-2.69-28.74c-6.9-3.82-14-6.05-20.94-9.22-.14-.07-17.28-5.16-27.65-3.31-12.95,2.3-6.84,10.39-21,.31C184.78,250.74,179.06,252.1,174.36,254.32Z"/><path class="cls-5" d="M276.57,83.08c8.6,7.21,22.06,16.65,25.81,26.4,2.68,7,39.31,2.09,41.11,7.41,3.23,9.58,16.51-3.31,13.93,23.11a34.82,34.82,0,0,0,.81,8.24q3.58-13.23,10.92-18.55c-.24-2-.59-3.42-1.08-3.83-6.07-5.15-13-12.8-19.24-19.85s-8.93,2.48-16.46,1.3c-1.51-.24-14.41,1.1-17-1.51,0,0-6.31-1.45-8.75-7.42C299.1,97.35,303.4,89,276.57,83.08Z"/><path class="cls-7" d="M274.53,82.58c8.6,7.21,17.25,24,21,33.81,2.68,7,42.39-1,44.18,4.31,3.23,9.58,13.45-.22,10.87,26.21v.15a44.26,44.26,0,0,1,7.5,1.82,47.66,47.66,0,0,1,4.45-11.47c-.24-4.81-.71-9-1.48-9.68-6.07-5.14-9.55-5.28-15.81-12.33s-12.18,0-19.7-1.19c-1.51-.24-14.42,1.1-17-1.51,0,0-6.31-1.45-8.74-7.41-1.46-.45-5.72-10.1-15.63-14.52C278.48,88.24,281.75,83.71,274.53,82.58Z"/><path class="cls-4" d="M274.53,82.58c8.6,7.21,20.32,21,24.06,30.71,2.68,7,39.32,2.09,41.11,7.41,3.23,9.58,16.52-3.31,13.94,23.11a18.53,18.53,0,0,0,.13,3.86,44.24,44.24,0,0,1,4.29,1.21q2.65-10.17,7.46-15.8c-.26-4.27-.71-7.84-1.42-8.44-6.06-5.14-9.55-5.28-15.81-12.33s-12.18,0-19.7-1.19c-1.51-.24-14.41,1.1-17-1.51,0,0-6.32-1.45-8.75-7.42-1.46-.44-5.72-10.09-15.63-14.52C281.55,85.15,281.75,83.71,274.53,82.58Z"/><path class="cls-7" d="M78.6,166.07c4.11-11.17,12.13-5.53,8.27-22.7-.26-1.18-.33-9.93-1.14-13.44-.49-2.11,11.76-15.26,14.14-16.57,9.56-5.26,4.42-7.54,15,1.9,3.2,2.87,5,2.11,10.41.69.39-.11,19.9-10,12.67-5.85-2.81,1.61-4.43,8.91-9.7,10.39-3.6,1-7.89,3.85-14.25.47-1.3-.69-7.66-1.66-9.22.25-2,2.5-4.32,12-3.47,16.51.42,2.2.17,13.51-.57,14.72C95.19,161.48,87.89,162,78.6,166.07Z"/><path class="cls-4" d="M78.6,166.07c4.11-11.17,10.75-6.91,6.89-24.07-.27-1.18-.33-9.93-1.15-13.45-.48-2.11,11.77-15.26,14.15-16.57,9.56-5.26,4.41-7.53,15,1.91,3.2,2.86,5,2.1,10.4.68.4-.1,20.39-8.07,13.15-3.93-2.81,1.62-6.13,5.78-11.39,7.26-3.61,1-6.68,5.07-13,1.69-1.31-.7-8.62-3.42-10.17-1.5-2,2.49-6.69,13.78-5.85,18.26.42,2.21,2.4,13.54,1.66,14.76C92.71,160.15,87.89,162,78.6,166.07Z"/><path class="cls-6" d="M73.16,211.43c.8-5.23,11.81-12.76,18-16.4,15.47-9.13,9-8.07,19.46-19,.11-.11,21.18-9.76,28.12-20.27,1.31-2,17.43-15,18.21-16.83,0-.09,13.71-24.47,13.77-24.56,2.66-3.74,3.23-6.47.38-7.58-7.16-2.8-5.83-4.19-4.77-13.62.92-8.26,20.78-23.34,22.69-29,.37-1.09,11-24.4,11.1-24.52-1.09,1-9.79,15.07-13.11,18.57-2.8,2.95-7.35,8.88-11.18,12.74-3.28,3.3-17.76,16.62-18.8,18.8-3,6.34-7.69,15.22-9.36,21.11-1.49,5.3,10.39,6,7.05,12.8-9.11,18.62-11,14.35-23.73,31.69-5.27,7.2-12.93,5-22,17.66-8.36,11.69-9.49,13.24-23.22,24.74C72.67,208.76,72.83,213.63,73.16,211.43Z"/><path class="cls-8" d="M73.72,211.15c.8-5.23,9.78-14.4,15.94-18,15.47-9.13,7.63-9,18.08-19.9.1-.11,21.17-9.76,28.11-20.27,1.31-2,16-16.46,16.75-18.29,0-.09,12.57-23,12.64-23.09,2.65-3.74,4.69-5.34,1.84-6.45-7.16-2.8-4.7-5.33-3.64-14.76.93-8.26,20.78-23.34,22.69-29,.37-1.09,12.29-19.91,12.41-20-1.09,1-11.1,10.58-14.42,14.08-2.8,3-7.35,8.88-11.18,12.74-3.28,3.3-19.06,15.33-20.1,17.51-3,6.34-8.66,16.53-10.33,22.41-1.49,5.3,11.21,6.28,7.87,13.12-9.11,18.61-9.57,14-22.27,31.36-5.28,7.2-14.08,3.84-23.16,16.53C96.58,180.8,96.59,183.48,82.86,195,69.81,205.93,73.38,213.34,73.72,211.15Z"/><path class="cls-4" d="M73.44,211.43c.79-5.23,10.14-14.14,16.3-17.77,15.47-9.13,9-8.07,19.47-19,.1-.11,21.17-9.75,28.11-20.27,1.31-2,16-16.46,16.75-18.28,0-.09,12.58-23,12.64-23.09,2.66-3.75,4.69-5.35,1.84-6.46-7.16-2.79-4.7-5.33-3.64-14.76.93-8.26,20.79-23.33,22.7-29,.37-1.09,14.21-26.37,14.33-26.48-1.08.95-13,17-16.34,20.52-2.8,3-7.35,8.88-11.18,12.74-3.28,3.3-17.76,16.63-18.8,18.81-3,6.34-7.7,15.22-9.36,21.1-1.5,5.3,10.39,6,7,12.81-9.11,18.62-11,14.34-23.72,31.68-5.27,7.2-12.93,5-22,17.67-8.37,11.69-9.5,13.23-23.22,24.74C71.29,207.39,73.1,213.63,73.44,211.43Z"/><path class="cls-7" d="M233.94,40.38c3,3-3.18-2.29.2.2,6.37,4.68.39,6.44,12,8.59,6.21,1.16,10.56,8.13,17.15,10.27,4.89,1.59,3.46,6.12,8.29.83.8-.88,9.36,5,11.1,7,.68.78,12.11,1.4,13.72,3.11.26.28,7.94,4.17,10.2,6.22,1.59,1.44,9,4.21,4.32-.13-2.29-2.13-1.13-2.59-7.42-6.24-3.52-2-5.16-5.38-10-6.7-2.76-.75-8.87-4.55-12-4.92-2.59-.3-6.81-4.84-9.81-4.45s-2.91.76-5.2,1.36c-1.9.49-9.28-2.59-11.33-4-4-2.69-9.51-7.77-14.11-7.42-1.56.11-2.06.7-3.63-.86A25.81,25.81,0,0,0,233.94,40.38Z"/><path class="cls-4" d="M225.87,33.33a63.34,63.34,0,0,0,8,7.25c6.37,4.69,1.65,5.46,13.24,7.62,6.21,1.15,10.56,8.13,17.15,10.27,4.89,1.58,3.46,6.12,8.29.82.8-.88,10.29,2.83,12,4.82.69.79,11.19,3.57,12.8,5.27.26.29,7.94,4.17,10.2,6.22,1.59,1.45,9,6.08,4.32,1.74-2.29-2.14-1.13-4.46-7.42-8.1-3.52-2-5.16-5.39-10-6.7-2.76-.76-8.87-4.55-11.95-4.92-2.59-.31-6.81-4.84-9.81-4.45s-2.91.75-5.2,1.35c-1.9.49-9.28-2.59-11.33-4-4-2.68-9.51-7.76-14.11-7.42-1.56.12-7.39-2.05-9-3.62C231.8,38.25,226.22,33.68,225.87,33.33Z"/><path class="cls-6" d="M260.3,180.52c-2.14-10-9.75-33-5.54-41.84,2.88-6.07-8.16-21.45-4.46-30.12,1.07-2.51,2.86-33.52,3.87-28.12.74,3.93,1.47,29,2,29.3,5.81,3.52,22.54,23.55,20.9,26.61-1.33,2.49-6.45,28.38-6,30,.64,2.53,8.45,14.52,12.94,20.5a58,58,0,0,0-6.6,6.47,23.87,23.87,0,0,1-2.79-2.06c-2.84-2.45-9.1-5-10.76-8.11C263.85,183.14,260.22,180.16,260.3,180.52Z"/><path class="cls-8" d="M251,182.2c-2.14-10-7.16-33-2.95-41.84,2.88-6.08-8.16-21.46-4.46-30.13,1-2.36,8.33-30.9,10.48-29.87.65.31-.47,4.39-.75,11.48-.1,2.58-4.89,18.93-3.82,19.58C255.32,114.93,267.66,135,266,138c-1.33,2.48-6.45,28.38-6,30,.76,3,15.8,19.31,19.41,23.11a45.37,45.37,0,0,0-5.3,6.54,27.51,27.51,0,0,1-8.78-4.75c-2.84-2.45-9.1-5-10.76-8.11C254.55,184.82,251.08,182.56,251,182.2Z"/><path class="cls-4" d="M257.81,181c-2.14-10-9.75-33-5.54-41.84,2.88-6.08-8.16-21.45-4.47-30.12,1.31-3.08,8-48.76,6.82-18.39-.1,2.59-2,18.92-.9,19.57,5.81,3.51,18.15,23.56,16.51,26.63-1.33,2.48-6.45,28.37-6,30,.68,2.71,12.93,16.19,18,21.63a51.72,51.72,0,0,0-5.86,6.18,25.94,25.94,0,0,1-4.23-2.92c-2.84-2.44-9.1-5-10.76-8.11C261.36,183.58,257.73,180.6,257.81,181Z"/><path class="cls-4" d="M210.07,73.85c7.67,2,10.46-6.16,12.73-12.11,1.39-3.64.77-9.41-3.29-11.57-6.43-3.41-9.22-3.86-16.62-3.93-10.93-.1-14.81,5.92-14.33,16.12S200.47,71.4,210.07,73.85Z"/><path class="cls-1" d="M207.23,71.86c6.39,1.63,8.71-5.13,10.6-10.07,1.15-3,.63-7.83-2.75-9.63-5.34-2.84-7.67-3.21-13.82-3.27-9.1-.08-12.32,4.92-11.92,13.41S199.25,69.82,207.23,71.86Z"/><path class="cls-2" d="M206.6,65.12c4.58-1.29,3.58-6.35,3-10.12-.37-2.3-2.43-5.11-5.19-5-4.37.16-5.95.77-9.81,3-5.71,3.24-5.91,7.53-2.59,12.68S200.88,66.74,206.6,65.12Z"/><path class="cls-3" d="M203,61c2.3-2.12.21-4.79-1.27-6.82-.9-1.24-2.95-2.27-4.53-1.39a11.23,11.23,0,0,0-4.87,4.66c-2.38,3.59-1.23,6.17,2.25,8.2S200.16,63.68,203,61Z"/><path class="cls-4" d="M115.94,113.34c1.85,1.84,3.09,2.19,5.75,2.58,8.64,1.27,12.41-14.71,3.85-17.23a12.9,12.9,0,0,0-7-.43C110.31,100,112.87,110.29,115.94,113.34Z"/><path class="cls-1" d="M116,111.64c1.51,1.5,2.52,1.79,4.69,2.1,7,1,10.12-12,3.14-14a10.64,10.64,0,0,0-5.68-.35C111.38,100.76,113.47,109.16,116,111.64Z"/><path class="cls-2" d="M116,109.22a4.92,4.92,0,0,0,3.43,1.54c5.17.76,7.42-8.79,2.3-10.29a7.64,7.64,0,0,0-4.16-.26C112.63,101.25,114.16,107.4,116,109.22Z"/><path class="cls-3" d="M116.89,105.4a2.89,2.89,0,0,0,2,.9c3,.43,4.29-5.1,1.33-6a4.48,4.48,0,0,0-2.41-.14C114.94,100.79,115.83,104.35,116.89,105.4Z"/><path class="cls-4" d="M195.08,115.4c-4.27,3.61-24.44,11.46-15.34,23,5.66,7.22-.69,17.58,4.73,22,16.7,13.53,23-19,24-26.9C209,128.88,205.34,106.73,195.08,115.4Z"/><path class="cls-1" d="M193.89,117.43c-3.57,3-20.47,9.6-12.85,19.31,4.74,6-.57,14.72,4,18.4,14,11.33,19.27-15.91,20.08-22.54C205.56,128.72,202.49,110.17,193.89,117.43Z"/><path class="cls-2" d="M191.48,120.9c-2.52,2.13-14.41,6.76-9,13.6,3.33,4.25-.41,10.36,2.78,12.94,9.85,8,13.57-11.19,14.14-15.86C199.69,128.85,197.53,115.79,191.48,120.9Z"/><path class="cls-3" d="M194.32,124c-5,.11-14.31,2.54-10.84,9.47s10.89-.11,12.48-2C196.9,130.38,199.21,123.85,194.32,124Z"/><path class="cls-4" d="M73.09,215.64c-7.32,6.1-8.19,9.44-6.41,18.65.46,2.38,3.3,6.07,5.88,7.37,6.63,3.37,6.11.9,11.63,2,4.94,1,10.29-13.37,11-17.17C99.27,205.22,91.5,200.32,73.09,215.64Z"/><path class="cls-1" d="M73.41,217.28c-5.85,4.88-6.55,7.55-5.12,14.92a10.54,10.54,0,0,0,4.7,5.9c5.31,2.68,4.89.71,9.3,1.62,3.95.82,8.23-10.69,8.81-13.73C94.35,208.94,88.14,205,73.41,217.28Z"/><path class="cls-2" d="M72.36,220.58c-4.06,3.39-4.54,5.24-3.55,10.35A7.3,7.3,0,0,0,72.07,235c3.68,1.87,3.39.49,6.45,1.13,2.74.57,5.71-7.42,6.11-9.53C86.88,214.8,82.57,212.08,72.36,220.58Z"/><path class="cls-3" d="M71.32,222.55c-2.38,2-2.66,3.07-2.08,6.06a4.24,4.24,0,0,0,1.91,2.4c2.15,1.09,2,.29,3.77.66,1.61.34,3.35-4.34,3.58-5.58C79.82,219.17,77.3,217.58,71.32,222.55Z"/><path class="cls-4" d="M301.63,103.64c7.36.13,22.72-4,22.57-13.14C323.52,49,276.05,103.21,301.63,103.64Z"/><path class="cls-1" d="M301.55,100.31c5.91.1,18.24-3.22,18.12-10.55C319.13,56.45,281,100,301.55,100.31Z"/><path class="cls-2" d="M304.41,94.32c4,.07,12.45-2.19,12.37-7.2C316.41,64.38,290.39,94.08,304.41,94.32Z"/><path class="cls-3" d="M311.94,90.1c1.91-1.44,5-5.57,3.15-7.88C306.62,71.73,305.31,95.11,311.94,90.1Z"/><path class="cls-4" d="M276.73,179.06a10.78,10.78,0,0,0,8.7,6.64,86.61,86.61,0,0,1,7.54-5.36c2.3-4.86,3.55-11.5,4.63-13.87,1.74-3.84,3.42-6.34-.71-9.64-2.22-1.78-8.72-.93-11.64-2C272.77,150.08,273.34,171.87,276.73,179.06Z"/><path class="cls-1" d="M278.31,175.52c1.66,3.52,4.06,5.11,8,5.62,5.85.75,7.78-12.73,9.29-16s2.84-5.26-.58-8c-1.84-1.47-7.23-.77-9.65-1.68C275,151.51,275.51,169.56,278.31,175.52Z"/><path class="cls-2" d="M279.74,170.5a6.27,6.27,0,0,0,5.47,3.85c4,.51,5.33-8.71,6.36-11s1.94-3.6-.4-5.47c-1.26-1-4.94-.52-6.6-1.14C277.5,154.08,277.83,166.43,279.74,170.5Z"/><path class="cls-3" d="M279.91,166.1a3.8,3.8,0,0,0,3.33,2.34c2.43.32,3.24-5.3,3.87-6.68s1.18-2.19-.25-3.33c-.76-.61-3-.32-4-.7C278.54,156.11,278.74,163.62,279.91,166.1Z"/><path class="cls-4" d="M268.6,215.72a6.34,6.34,0,0,0-3,1.76c-4.6,4.63-.79,5.24-6.31,11.25-2.74,3-35.91,20.7,9,24.4a65.27,65.27,0,0,1,12.55-8.25Q268.78,229.34,268.6,215.72Z"/><path class="cls-1" d="M268.51,248c2.13.17,7.64-1.28,11.12-4.67q-10.36-14-11-26.39a5.25,5.25,0,0,0-2.44,1.45c-3.82,3.84-.66,4.35-5.24,9.34C258.68,230.19,231.08,244.92,268.51,248Z"/><path class="cls-2" d="M267,240.7a11.28,11.28,0,0,0,8.18-4A46.27,46.27,0,0,1,269,220.26a3.31,3.31,0,0,0-3.5.88c-2.52,2.54-.43,2.88-3.46,6.17C260.51,229,242.28,238.68,267,240.7Z"/><path class="cls-3" d="M266.8,234.3c9.2.76,2.4-13.54-.81-10.31C261.6,228.41,256.77,233.49,266.8,234.3Z"/><path class="cls-4" d="M135.93,318.73c.76,7.42,5.82,22.63,17.52,18,3.17-1.25,3.55-4.63,6-7,6.22-5.88,4.85-15.64.9-19.55-2.44-2.43-3.55-3.88-7.44-3.18-1,.19-5.7.17-6.67-.61C139.82,301.3,135.5,314.57,135.93,318.73Z"/><path class="cls-1" d="M136.78,317.82c.65,6.31,4.94,19.24,14.89,15.33,2.7-1.07,3-3.94,5.13-5.93,5.29-5,4.12-13.3.77-16.62-2.08-2.07-3-3.3-6.33-2.7-.87.15-4.84.14-5.67-.52C140.09,303,136.41,314.28,136.78,317.82Z"/><path class="cls-2" d="M139.61,315.72c.45,4.32,3.39,13.18,10.21,10.5,1.84-.73,2.07-2.7,3.51-4.06,3.63-3.43,2.83-9.12.53-11.4-1.42-1.41-2.07-2.25-4.34-1.84-.6.1-3.32.09-3.89-.36C141.88,305.56,139.36,313.29,139.61,315.72Z"/><path class="cls-3" d="M142,313.76c.25,2.41,1.88,7.34,5.68,5.85,1-.41,1.15-1.5,2-2.26a4.71,4.71,0,0,0,.29-6.34c-.79-.79-1.15-1.26-2.41-1a5.16,5.16,0,0,1-2.17-.2C143.26,308.11,141.86,312.41,142,313.76Z"/><path class="cls-4" d="M181,237c5.31-7.92-1.64-12.48-6.63-16.07a10.56,10.56,0,0,0-13.05,1.34c-6.23,6.29-7.89,9.22-11.18,17.2-4.86,11.78-.5,17.13,10,18.56S174.36,246.85,181,237Z"/><path class="cls-1" d="M179,234.66c4.23-6.31-1.31-9.94-5.28-12.8a8.43,8.43,0,0,0-10.41,1.07c-5,5-6.28,7.34-8.9,13.7-3.87,9.39-.4,13.64,7.94,14.79S173.72,242.54,179,234.66Z"/><path class="cls-2" d="M174.2,231.4c2.82-4.21-.87-6.63-3.52-8.54a5.62,5.62,0,0,0-6.93.72c-3.31,3.34-4.19,4.89-5.94,9.13-2.58,6.26-.26,9.1,5.29,9.86S170.68,236.65,174.2,231.4Z"/><path class="cls-3" d="M171.86,228.34c1.78-2.66-.55-4.18-2.22-5.39a3.55,3.55,0,0,0-4.37.45,14.08,14.08,0,0,0-3.75,5.76c-1.63,4-.16,5.74,3.34,6.22S169.64,231.65,171.86,228.34Z"/><path class="cls-4" d="M111.56,214.42c.11,1.1.86,3.34,2.58,2.66.47-.18.53-.68.89-1a2.13,2.13,0,0,0,.14-2.88c-.36-.36-.53-.57-1.1-.47a2.39,2.39,0,0,1-1-.09C112.13,211.85,111.5,213.81,111.56,214.42Z"/><path class="cls-4" d="M230.15,292.59a2.11,2.11,0,0,0,1.43.64c2.14.31,3.07-3.65.95-4.27a3.27,3.27,0,0,0-1.73-.11C228.76,289.28,229.39,291.83,230.15,292.59Z"/><path class="cls-4" d="M209.23,311.94c.76.06,3.6-.88,2.79-3.15-.27-.74-1-.46-1.11-1.82-.07-1.15-1.33-2-2.16-1.17s-.14.9-1.09,1.93C207.19,308.25,201.47,311.3,209.23,311.94Z"/><path class="cls-4" d="M247.69,332.18a3.1,3.1,0,0,0,2.47,1.91,52.62,52.62,0,0,1,1.36-8.72,5.58,5.58,0,0,1-1.37-.19C246.55,323.81,246.71,330.11,247.69,332.18Z"/><path class="cls-4" d="M100.56,197a2.12,2.12,0,0,0-.89,2.59,1.8,1.8,0,0,0,.82,1c.92.47.85.13,1.61.28s1.43-1.85,1.53-2.38C104.19,195.52,103.12,194.84,100.56,197Z"/><path class="cls-4" d="M267.78,90.88c-2.16,1.82-5.85,9.49-2.82,12,4.44,3.59,4.55-5.68,4.8-7.78C269.91,93.82,270.5,88.58,267.78,90.88Z"/><path class="cls-4" d="M238.86,73.75c1.81.47,2.46-1.45,3-2.85a2.26,2.26,0,0,0-.78-2.73,6.71,6.71,0,0,0-3.92-.92c-2.57,0-3.49,1.39-3.37,3.8S236.59,73.18,238.86,73.75Z"/><path class="cls-4" d="M118.49,200.11c.62-.92-.19-1.45-.77-1.86a1.21,1.21,0,0,0-1.51.15,4.79,4.79,0,0,0-1.3,2c-.57,1.37-.06,2,1.15,2.15S117.72,201.26,118.49,200.11Z"/><path class="cls-4" d="M213,85a1.92,1.92,0,0,0,1.33.6c2,.29,2.87-3.4.89-4a2.94,2.94,0,0,0-1.61-.1C211.7,81.94,212.3,84.32,213,85Z"/><path class="cls-4" d="M120.57,314.36c.15,1.45,1.14,4.44,3.44,3.54.62-.25.7-.91,1.18-1.37a2.85,2.85,0,0,0,.18-3.84c-.48-.48-.7-.76-1.46-.62a3.24,3.24,0,0,1-1.31-.12C121.33,310.94,120.49,313.54,120.57,314.36Z"/><path class="cls-4" d="M124.69,279.94c-1.35,1.13-1.51,1.75-1.19,3.45a2.44,2.44,0,0,0,1.09,1.36c1.22.62,1.13.16,2.15.38s1.9-2.47,2-3.17C129.52,278,128.09,277.12,124.69,279.94Z"/><path class="cls-4" d="M166.73,282.3c.82-1.22-.26-1.93-1-2.48a1.61,1.61,0,0,0-2,.21,6.43,6.43,0,0,0-1.73,2.65c-.75,1.82-.08,2.65,1.54,2.87S165.7,283.83,166.73,282.3Z"/><path class="cls-4" d="M118.52,301.27a1.39,1.39,0,0,0,1.78-.34,1.19,1.19,0,0,0,.32-.81c0-.69-.21-.53-.37-1s-1.54-.21-1.88-.1C116.48,299.66,116.44,300.51,118.52,301.27Z"/><path class="cls-4" d="M179.26,94.77a1.41,1.41,0,0,0,1.46,1.09,1.18,1.18,0,0,0,.81-.31c.49-.48.26-.51.51-1s-.88-1.28-1.19-1.45C179.09,92.18,178.44,92.72,179.26,94.77Z"/><path class="cls-4" d="M232.72,83.74c-.45-.57-.95-.17-1.33.11a.81.81,0,0,0-.21,1,3.23,3.23,0,0,0,1,1.23c.75.63,1.25.44,1.6-.29S233.29,84.47,232.72,83.74Z"/><path class="cls-4" d="M325.59,144.54c1.81.46,2.47-1.45,3-2.85a2.27,2.27,0,0,0-.77-2.73,6.76,6.76,0,0,0-3.92-.93c-2.58,0-3.49,1.4-3.38,3.8S323.33,144,325.59,144.54Z"/><path class="cls-4" d="M117.37,149.1a1.92,1.92,0,0,0,1.32.6c2,.29,2.87-3.4.89-4a2.94,2.94,0,0,0-1.61-.1C116.07,146,116.66,148.4,117.37,149.1Z"/><path class="cls-4" d="M222.66,224.2a1.92,1.92,0,0,0,1.33.6c2,.29,2.87-3.4.89-4a2.94,2.94,0,0,0-1.61-.1C221.36,221.12,222,223.5,222.66,224.2Z"/><path class="cls-4" d="M188.92,234a1.42,1.42,0,0,0,1.46,1.09,1.2,1.2,0,0,0,.81-.31c.48-.48.25-.51.51-1s-.88-1.28-1.2-1.45C188.75,231.36,188.1,231.9,188.92,234Z"/><path class="cls-4" d="M242.38,222.92c-.45-.58-.95-.17-1.34.11a.83.83,0,0,0-.21,1,3.26,3.26,0,0,0,1,1.23c.75.63,1.25.44,1.6-.29S243,223.65,242.38,222.92Z"/><path class="cls-4" d="M203.52,183.73a1.42,1.42,0,0,0,1.79-.34,1.25,1.25,0,0,0,.32-.81c0-.69-.21-.53-.38-1s-1.54-.21-1.88-.09C201.48,182.12,201.45,183,203.52,183.73Z"/><path class="cls-4" d="M250.44,194c-1.2-1.52-2.52-.46-3.53.28a2.15,2.15,0,0,0-.56,2.61,8.52,8.52,0,0,0,2.63,3.24c2,1.68,3.29,1.17,4.22-.77S251.94,195.91,250.44,194Z"/><path class="cls-4" d="M140.1,91.05c1.81.46,2.46-1.46,3-2.86a2.26,2.26,0,0,0-.78-2.72,6.72,6.72,0,0,0-3.92-.93c-2.57,0-3.49,1.39-3.37,3.8S137.83,90.47,140.1,91.05Z"/><path class="cls-4" d="M212.2,105.25a2,2,0,0,0,1.43.64c2.14.32,3.07-3.64,1-4.27a3.17,3.17,0,0,0-1.73-.1C210.81,102,211.44,104.5,212.2,105.25Z"/><path class="cls-4" d="M229.74,144.85a3.2,3.2,0,0,0,2.79,2c2,.26,2.72-4.44,3.24-5.6s1-1.83-.2-2.78c-.65-.52-2.52-.27-3.36-.59C228.6,136.48,228.76,142.77,229.74,144.85Z"/><path class="cls-8" d="M262.52,301q-6.36,8.56-7.76,15.15,5.46-10.31,10.58-14.26-23.56-37,15.48-57-32.29-42.94,21.53-69.9,9.58-24.9,40.49-28.41-33.31,3.3-43.22,27.63-51,27.56-23.89,70.14Q240.75,269.2,262.52,301Z"/></g></svg>